<svg xmlns="http://www.w3.org/2000/svg" width="126.422" height="34.787" viewBox="0 0 126.422 34.787">
  <path id="Path_467" data-name="Path 467" d="M22.043,13.793,12.709,39H9.457L.316,13.793H3.6l6.979,19.986a11.867,11.867,0,0,1,.51,2.232h.07a10.949,10.949,0,0,1,.58-2.268l7.119-19.951Zm4.711,2.637a1.826,1.826,0,0,1-1.318-.527,1.78,1.78,0,0,1-.545-1.336,1.846,1.846,0,0,1,1.863-1.881,1.862,1.862,0,0,1,1.345.536,1.878,1.878,0,0,1,0,2.663A1.846,1.846,0,0,1,26.754,16.43ZM28.16,39H25.277V21H28.16Zm18.105-.826a9.367,9.367,0,0,1-4.922,1.248,8.149,8.149,0,0,1-6.214-2.5,9.078,9.078,0,0,1-2.364-6.5,9.979,9.979,0,0,1,2.549-7.146,8.916,8.916,0,0,1,6.8-2.7,9.469,9.469,0,0,1,4.184.879V24.41A7.33,7.33,0,0,0,42.012,23a5.8,5.8,0,0,0-4.526,1.978,7.5,7.5,0,0,0-1.767,5.194,7.145,7.145,0,0,0,1.661,4.992A5.726,5.726,0,0,0,41.836,37a7.225,7.225,0,0,0,4.43-1.564Zm12.709.65a5.558,5.558,0,0,1-2.689.563q-4.729,0-4.729-5.273V23.461H48.463V21h3.094V16.605l2.883-.932V21h4.535v2.461H54.439V33.6a4.2,4.2,0,0,0,.615,2.584,2.455,2.455,0,0,0,2.039.773,3.031,3.031,0,0,0,1.881-.6Zm11.373.6A8.349,8.349,0,0,1,63.976,36.9a9.343,9.343,0,0,1-2.382-6.688,9.733,9.733,0,0,1,2.479-7.084,8.91,8.91,0,0,1,6.7-2.549,8.073,8.073,0,0,1,6.284,2.479,9.827,9.827,0,0,1,2.259,6.873,9.67,9.67,0,0,1-2.435,6.9A8.531,8.531,0,0,1,70.348,39.422ZM70.559,23a5.483,5.483,0,0,0-4.395,1.89,7.761,7.761,0,0,0-1.617,5.212,7.34,7.34,0,0,0,1.635,5.045A5.556,5.556,0,0,0,70.559,37a5.27,5.27,0,0,0,4.3-1.811,7.857,7.857,0,0,0,1.5-5.15,7.992,7.992,0,0,0-1.5-5.2A5.247,5.247,0,0,0,70.559,23Zm22.746.914a3.525,3.525,0,0,0-2.18-.58,3.679,3.679,0,0,0-3.085,1.74A8.046,8.046,0,0,0,86.8,29.824V39H83.918V21H86.8v3.709h.07a6.285,6.285,0,0,1,1.881-2.962,4.289,4.289,0,0,1,2.83-1.063,4.706,4.706,0,0,1,1.723.246ZM110.76,21,102.48,41.883q-2.215,5.59-6.223,5.59a6.6,6.6,0,0,1-1.881-.229V44.66a5.343,5.343,0,0,0,1.705.316q2.18,0,3.27-2.6l1.441-3.41L93.762,21h3.2l4.869,13.852q.088.264.369,1.371h.105q.088-.422.352-1.336L107.771,21Zm15.979,18h-2.883V36.188h-.07a6.035,6.035,0,0,1-5.537,3.234A5.918,5.918,0,0,1,114.038,38a4.933,4.933,0,0,1-1.521-3.779q0-5.045,5.941-5.871l5.4-.756q0-4.588-3.709-4.588a8.861,8.861,0,0,0-5.871,2.215V22.266a11.155,11.155,0,0,1,6.117-1.687q6.346,0,6.346,6.715Zm-2.883-9.105-4.342.6a7.049,7.049,0,0,0-3.023.993,2.864,2.864,0,0,0-1.02,2.522,2.747,2.747,0,0,0,.94,2.153,3.634,3.634,0,0,0,2.5.835,4.627,4.627,0,0,0,3.542-1.5,5.37,5.37,0,0,0,1.4-3.806Z" transform="translate(-0.316 -12.686)" fill="#452268" opacity="0.78"/>
</svg>
