<svg xmlns="http://www.w3.org/2000/svg" width="23.984" height="23.983" viewBox="0 0 23.984 23.983">
  <path id="Path_465" data-name="Path 465" d="M20.625,1.281a2.3,2.3,0,0,1,2.977.7,2.1,2.1,0,0,1,.352,1.594L21.188,21.766a2.148,2.148,0,0,1-1.125,1.594,2.221,2.221,0,0,1-1.078.281,2.8,2.8,0,0,1-.891-.141l-5.25-2.2-2.016,2.813a2.244,2.244,0,0,1-1.617.867A2.3,2.3,0,0,1,7.5,24.414a2.071,2.071,0,0,1-.75-1.664V18.813l-5.344-2.25a2.07,2.07,0,0,1-1.2-1.125A2.316,2.316,0,0,1,.094,13.82a2.149,2.149,0,0,1,1.031-1.289ZM9,22.75l1.734-2.344L9,19.7Zm9.984-1.359L21.75,3.25,2.25,14.5l5.063,2.109L17.2,7.938a.7.7,0,0,1,.7-.164.775.775,0,0,1,.516.469.675.675,0,0,1-.094.68l-6.562,9.516Z" transform="translate(0 -1)" fill="#fff"/>
</svg>
